<svg width="32" height="32" viewBox="0 0 32 32" fill="none" xmlns="http://www.w3.org/2000/svg">
    <path fill-rule="evenodd" clip-rule="evenodd"
        d="M15.5001 28C17.5 28 19.5 27.117 21.5012 24.8758C22.3846 23.8863 23.0852 22.7106 23.5627 21.4162C24.0402 20.1218 24.2851 18.7342 24.2835 17.3332C24.285 15.932 24.0398 14.5444 23.5622 13.25C23.0845 11.9556 22.3837 10.7799 21.5 9.7906C20.6211 8.80382 19.7634 8.052 18.8506 7.25198C17.8319 6.35919 16.7448 5.40638 15.4835 4C12.5314 6.66664 11.9377 10.6666 11.9377 13.3332C9.5627 11.9999 8.78252 9.7906 8.78252 9.7906C7.0009 11.791 6 14.5042 6 17.3332C6 20.1622 7.0009 22.8753 8.78252 24.8758C10.5641 26.8762 12.9805 28 15.5001 28ZM14.1275 22.8486C13.6561 22.6813 13.2273 22.3811 12.8789 21.9745C12.293 21.292 12 20.396 12 19.5H13.9998L15.0147 16C15.5074 16.0028 15.9919 16.1471 16.4255 16.4202C16.859 16.6934 17.2282 17.0869 17.5005 17.5661C17.7727 18.0452 17.9396 18.5952 17.9864 19.1675C18.0332 19.7398 17.9585 20.3168 17.7688 20.8474C17.5791 21.3779 17.2804 21.8458 16.8989 22.2097C16.5175 22.5736 16.0651 22.8222 15.5817 22.9336C15.0983 23.0451 14.5989 23.0158 14.1275 22.8486Z"
        fill="#EF4444" />
    <path
        d="M21.5012 24.8758L22.2471 25.5418L21.5012 24.8758ZM24.2835 17.3332L23.2835 17.3321L23.2835 17.3344L24.2835 17.3332ZM21.5 9.7906L20.7532 10.4557L20.7542 10.4568L21.5 9.7906ZM18.8506 7.25198L19.5097 6.49994L18.8506 7.25198ZM15.4835 4L16.228 3.33233C16.0505 3.13443 15.8015 3.01534 15.536 3.00138C15.2705 2.98742 15.0104 3.07973 14.8132 3.25793L15.4835 4ZM11.9377 13.3332L11.4481 14.2052C11.7578 14.3791 12.1364 14.3756 12.4429 14.1962C12.7493 14.0168 12.9377 13.6883 12.9377 13.3332H11.9377ZM8.78252 9.7906L9.72545 9.45762C9.60767 9.12409 9.32246 8.87759 8.97538 8.80937C8.6283 8.74116 8.27101 8.86137 8.03575 9.12551L8.78252 9.7906ZM5 17.3332C5 17.8855 5.44772 18.3332 6 18.3332C6.55228 18.3332 7 17.8855 7 17.3332H5ZM12.8789 21.9745L13.6383 21.3239L13.6377 21.3231L12.8789 21.9745ZM14.1275 22.8486L13.793 23.791L13.7931 23.791L14.1275 22.8486ZM12 19.5V18.5C11.4477 18.5 11 18.9477 11 19.5H12ZM13.9998 19.5V20.5C14.4448 20.5 14.8363 20.2059 14.9602 19.7785L13.9998 19.5ZM15.0147 16L15.0203 15C14.5732 14.9975 14.1788 15.2921 14.0543 15.7215L15.0147 16ZM16.4255 16.4202L16.9585 15.5741L16.9585 15.5741L16.4255 16.4202ZM17.5005 17.5661L18.37 17.0721H18.37L17.5005 17.5661ZM17.9864 19.1675L16.9898 19.249L17.9864 19.1675ZM17.7688 20.8474L18.7105 21.184V21.184L17.7688 20.8474ZM16.8989 22.2097L16.2087 21.4861H16.2087L16.8989 22.2097ZM15.5817 22.9336L15.8063 23.9081L15.8063 23.9081L15.5817 22.9336ZM20.7553 24.2097C18.8996 26.288 17.1549 27 15.5001 27V29C17.8451 29 20.1004 27.946 22.2471 25.5418L20.7553 24.2097ZM22.6245 21.0701C22.1887 22.2516 21.5518 23.3177 20.7553 24.2097L22.2471 25.5418C23.2175 24.455 23.9818 23.1697 24.5009 21.7623L22.6245 21.0701ZM23.2835 17.3344C23.285 18.6188 23.0603 19.8887 22.6245 21.0701L24.5009 21.7623C25.02 20.355 25.2853 18.8497 25.2835 17.332L23.2835 17.3344ZM22.624 13.5962C23.06 14.7777 23.2848 16.0476 23.2835 17.3321L25.2835 17.3343C25.2851 15.8165 25.0197 14.3111 24.5003 12.9038L22.624 13.5962ZM20.7542 10.4568C21.5509 11.3487 22.188 12.4148 22.624 13.5962L24.5003 12.9038C23.9809 11.4964 23.2164 10.2111 22.2458 9.12444L20.7542 10.4568ZM18.1914 8.00401C19.1076 8.80699 19.921 9.52122 20.7532 10.4557L22.2468 9.12551C21.3213 8.08642 20.4191 7.29701 19.5097 6.49994L18.1914 8.00401ZM14.739 4.66767C16.0437 6.1224 17.1703 7.10906 18.1914 8.00401L19.5097 6.49994C18.4935 5.60932 17.4459 4.69036 16.228 3.33233L14.739 4.66767ZM12.9377 13.3332C12.9377 10.7566 13.5214 7.11996 16.1538 4.74207L14.8132 3.25793C11.5414 6.21331 10.9377 10.5766 10.9377 13.3332H12.9377ZM8.78252 9.7906C7.83959 10.1236 7.83971 10.1239 7.83984 10.1243C7.83989 10.1244 7.84003 10.1248 7.84012 10.1251C7.84031 10.1256 7.84052 10.1262 7.84073 10.1268C7.84117 10.128 7.84165 10.1294 7.84219 10.1309C7.84326 10.1339 7.84454 10.1374 7.84602 10.1414C7.849 10.1495 7.85281 10.1598 7.85748 10.172C7.86682 10.1965 7.87964 10.2292 7.89613 10.2692C7.9291 10.3492 7.9769 10.4589 8.04129 10.592C8.16985 10.8579 8.36595 11.2199 8.64416 11.6266C9.19939 12.4381 10.0945 13.4453 11.4481 14.2052L12.4272 12.4612C11.4059 11.8879 10.7234 11.1237 10.2948 10.4973C10.0811 10.1849 9.93371 9.91134 9.84177 9.72124C9.79591 9.62643 9.76421 9.55312 9.74523 9.50708C9.73576 9.48408 9.72949 9.46797 9.72624 9.45946C9.72462 9.45521 9.72376 9.45287 9.72364 9.45253C9.72357 9.45236 9.7237 9.45269 9.724 9.45354C9.72415 9.45396 9.72435 9.45451 9.72459 9.45519C9.72471 9.45553 9.72485 9.4559 9.72499 9.45631C9.72506 9.45651 9.72518 9.45684 9.72521 9.45694C9.72533 9.45728 9.72545 9.45762 8.78252 9.7906ZM7 17.3332C7 14.7344 7.9205 12.262 9.52929 10.4557L8.03575 9.12551C6.0813 11.32 5 14.2739 5 17.3332H7ZM9.52929 24.2107C7.9205 22.4043 7 19.932 7 17.3332H5C5 20.3924 6.0813 23.3464 8.03575 25.5408L9.52929 24.2107ZM15.5001 27C13.2856 27 11.1347 26.0133 9.52929 24.2107L8.03575 25.5408C9.99357 27.7391 12.6755 29 15.5001 29V27ZM12.1195 22.6252C12.5733 23.1548 13.1454 23.5611 13.793 23.791L14.4619 21.9061C14.1668 21.8014 13.8812 21.6074 13.6383 21.3239L12.1195 22.6252ZM11 19.5C11 20.6057 11.3604 21.741 12.1202 22.6259L13.6377 21.3231C13.2255 20.8431 13 20.1864 13 19.5H11ZM13.9998 18.5H12V20.5H13.9998V18.5ZM14.0543 15.7215L13.0394 19.2215L14.9602 19.7785L15.9751 16.2785L14.0543 15.7215ZM16.9585 15.5741C16.3736 15.2056 15.7074 15.0039 15.0203 15L15.0091 17C15.3074 17.0017 15.6103 17.0885 15.8925 17.2663L16.9585 15.5741ZM18.37 17.0721C18.0226 16.4607 17.5419 15.9417 16.9585 15.5741L15.8925 17.2663C16.1761 17.445 16.4339 17.7131 16.631 18.0601L18.37 17.0721ZM18.9831 19.086C18.925 18.3749 18.7172 17.6831 18.37 17.0721L16.631 18.0601C16.8283 18.4073 16.9543 18.8156 16.9898 19.249L18.9831 19.086ZM18.7105 21.184C18.9489 20.5169 19.0413 19.7973 18.9831 19.086L16.9898 19.249C17.0252 19.6824 16.9681 20.1166 16.8272 20.5107L18.7105 21.184ZM17.5891 22.9333C18.0911 22.4545 18.472 21.851 18.7105 21.184L16.8272 20.5107C16.6863 20.9048 16.4696 21.2372 16.2087 21.4861L17.5891 22.9333ZM15.8063 23.9081C16.4756 23.7538 17.0863 23.413 17.5891 22.9333L16.2087 21.4861C15.9486 21.7342 15.6545 21.8906 15.3571 21.9592L15.8063 23.9081ZM13.7931 23.791C14.4423 24.0214 15.1357 24.0627 15.8063 23.9081L15.3571 21.9592C15.0609 22.0274 14.7554 22.0103 14.4619 21.9061L13.7931 23.791Z"
        fill="#7F1D1D" />
    <path
        d="M12.8789 21.9745C13.2273 22.3811 13.6561 22.6813 14.1275 22.8486C14.5989 23.0158 15.0983 23.0451 15.5817 22.9336C16.0651 22.8222 16.5175 22.5736 16.8989 22.2097C17.2804 21.8458 17.5791 21.3779 17.7688 20.8474C17.9585 20.3168 18.0332 19.7398 17.9864 19.1675C17.9396 18.5952 17.7727 18.0452 17.5005 17.5661C17.2282 17.0869 16.859 16.6934 16.4255 16.4202C15.9919 16.1471 15.5074 16.0028 15.0147 16L13.9998 19.5H12C12 20.396 12.293 21.292 12.8789 21.9745Z"
        fill="#7F1D1D" stroke="#7F1D1D" stroke-width="2" stroke-linecap="round" stroke-linejoin="round" />
</svg>