<svg width="32" height="32" viewBox="0 0 32 32" fill="none" xmlns="http://www.w3.org/2000/svg">
<path d="M21.5012 24.8758C19.5 27.117 17.5 28 15.5001 28C12.9805 28 10.5641 26.8762 8.78252 24.8758C7.0009 22.8753 6 20.1622 6 17.3332C6 14.5042 7.0009 11.791 8.78252 9.7906C8.78252 9.7906 9.5627 11.9999 11.9377 13.3332C11.9377 10.6666 12.5314 6.66664 15.4835 4C17.8751 6.66664 19.6404 7.70262 21.5 9.7906C22.3837 10.7799 23.0845 11.9556 23.5622 13.25C24.0398 14.5444 24.285 15.932 24.2835 17.3332C24.2851 18.7342 24.0402 20.1218 23.5627 21.4162C23.0852 22.7106 22.3846 23.8863 21.5012 24.8758Z" stroke="#EF4444" stroke-width="2" stroke-linecap="round" stroke-linejoin="round"/>
<path d="M12.8789 21.9745C13.2273 22.3811 13.6561 22.6813 14.1275 22.8486C14.5989 23.0158 15.0983 23.0451 15.5817 22.9336C16.0651 22.8222 16.5175 22.5736 16.8989 22.2097C17.2804 21.8458 17.5791 21.3779 17.7688 20.8474C17.9585 20.3168 18.0332 19.7398 17.9864 19.1675C17.9396 18.5952 17.7727 18.0452 17.5005 17.5661C17.2282 17.0869 16.859 16.6934 16.4255 16.4202C15.9919 16.1471 15.5074 16.0028 15.0147 16L13.9998 19.5H12C12 20.396 12.293 21.292 12.8789 21.9745Z" stroke="#EF4444" stroke-width="2" stroke-linecap="round" stroke-linejoin="round"/>
</svg>
