<svg width="32" height="32" viewBox="0 0 32 32" fill="none" xmlns="http://www.w3.org/2000/svg">
<g clip-path="url(#clip0)">
<path d="M12.1379 16L14.8046 18.6667L20.1379 13.3333" stroke="#34D399" stroke-width="2" stroke-linecap="round" stroke-linejoin="round"/>
<path d="M16 4.41379C18.4377 7.07421 21.6194 8.45939 24.8709 8.27586C25.3443 10.2623 25.4891 12.3458 25.2968 14.4026C25.1045 16.4594 24.579 18.4476 23.7515 20.249C22.924 22.0503 21.8114 23.6281 20.4797 24.8885C19.1481 26.149 17.6247 27.0664 16 27.5862C14.3753 27.0664 12.8518 26.149 11.5202 24.8885C10.1886 23.6281 9.07598 22.0503 8.24846 20.249C7.42095 18.4476 6.89543 16.4594 6.70313 14.4026C6.51083 12.3458 6.65568 10.2623 7.12906 8.27586C10.3805 8.45939 13.5622 7.07421 16 4.41379" stroke="#34D399" stroke-width="2" stroke-linecap="round" stroke-linejoin="round"/>
</g>
<defs>
<clipPath id="clip0">
<rect width="32" height="32" fill="white"/>
</clipPath>
</defs>
</svg>
